<svg width="87" height="80" viewBox="0 0 87 80" fill="none" xmlns="http://www.w3.org/2000/svg">
<path d="M74.0424 76.1163C74.0424 76.9444 58.7983 77.6155 39.9933 77.6155C21.1884 77.6155 5.94397 76.9444 5.94397 76.1163C5.94397 75.2882 21.1884 74.6171 39.9933 74.6171C58.7983 74.6171 74.0424 75.2882 74.0424 76.1163Z" fill="#E8E8E8"/>
<path d="M26.5486 26.9215C26.3072 27.2601 26.2539 27.6571 26.2074 28.0381C25.7077 32.1166 25.2081 36.196 24.7084 40.2754C24.5434 41.6228 23.9767 48.85 23.9547 48.8627C24.8583 52.3762 26.9498 55.5206 29.6136 57.9811C32.5189 60.6648 36.0256 62.4839 39.6905 63.8949C42.4521 64.958 45.1981 65.7921 47.8726 63.3332C49.3091 62.0122 50.9277 61.1815 50.5261 59.2717C50.1245 57.3609 48.4987 55.451 47.0378 54.1571C45.577 52.8632 43.8522 51.9087 42.1232 51.0042C39.2925 49.5237 36.3659 48.1322 33.2279 47.5349C32.5926 47.4144 31.9462 47.3296 31.2967 47.2837C32.6857 45.5503 33.7112 43.5734 33.9185 42.2439C34.3426 39.5246 32.8768 37.0674 31.3604 34.8631C29.844 32.6588 28.185 30.3688 28.1766 27.6682C28.1752 27.1981 28.1562 26.6203 27.6721 26.4591C27.2833 26.3301 26.7901 26.583 26.5486 26.9215" fill="#3A56BF"/>
<path d="M14.1395 61.4259C16.7925 63.4173 20.0307 64.5847 23.3276 65.0047C27.2504 65.5036 31.1612 64.9496 34.9644 63.9713C37.8303 63.2348 41.7452 62.8013 42.4973 59.2462C42.9014 57.3363 43.2944 53.9849 41.5294 53.1534C39.5285 52.2099 37.2414 51.9817 35.3011 51.7755C33.3609 51.5693 31.4026 51.7933 29.4698 52.0606C26.3362 52.4933 23.1773 53.0533 20.2976 54.3608C20.6247 53.2001 20.8119 52.1276 20.8422 51.3521C20.9496 48.6023 19.2101 46.3309 17.4496 44.3167C15.6891 42.3025 13.7769 40.2195 13.457 37.5375C13.4013 37.0708 13.3158 36.499 12.8164 36.3946C12.4151 36.3115 11.9546 36.6195 11.7537 36.9835C11.5529 37.3474 11.5459 37.7488 11.5436 38.1323C11.5179 42.2414 11.4922 46.3513 11.4665 50.4613C11.4552 52.2685 11.4296 60.3136 14.1395 61.4259" fill="#455AF4"/>
<path d="M15.9485 57.3611C17.1174 56.9495 18.2433 56.4159 19.3018 55.7719C18.7903 56.5245 18.2786 57.2762 17.7671 58.0288C18.4703 57.4756 19.1734 56.9232 19.8767 56.3709C19.3906 57.0946 18.9044 57.8175 18.4183 58.5413C20.6528 56.9088 23.1124 55.5895 25.6977 54.6052C30.2379 52.8778 35.1705 52.1769 40.0113 52.5935C40.0405 52.5961 40.07 52.5986 40.0997 52.6012C38.4893 52.1048 36.7975 51.9317 35.3096 51.7739C33.3694 51.5678 31.4111 51.7917 29.4783 52.059C26.3445 52.4917 23.1856 53.0517 20.3061 54.3592C20.6332 53.1985 20.8202 52.126 20.8506 51.3505C20.958 48.6007 19.2186 46.3294 17.458 44.3151C15.883 42.513 14.1877 40.6557 13.6185 38.364C13.4664 38.5014 13.3432 38.6686 13.306 38.8671C13.2695 39.0623 13.3201 39.2617 13.3792 39.4509C13.8392 40.9255 14.8124 42.1727 15.6712 43.4556C16.7115 45.01 17.6059 46.6619 18.3392 48.3826C19.0321 50.0091 19.5855 51.8291 19.0836 53.5235C18.6067 55.1347 17.2694 56.3234 15.9485 57.3611" fill="#2F43A3"/>
<path d="M73.1646 31.4203C74.9261 28.5677 78.2556 26.7571 81.6072 26.8292C81.7607 26.8326 81.9227 26.842 82.0516 26.926C82.1737 27.004 82.2475 27.1364 82.3111 27.2662C83.3899 29.4781 82.5265 32.1415 81.3223 34.2872C79.1597 38.1409 75.9048 41.3727 72.0367 43.5074C70.6525 44.271 69.1613 44.9057 67.5865 45.0431C66.3853 45.1484 65.1734 44.9608 64.011 44.6401C62.4863 44.2193 60.9474 43.5049 60.0625 42.194C58.5429 39.9414 59.4484 36.573 61.0013 34.5409C62.6272 32.4138 65.3823 31.0385 67.9979 30.7364C69.7408 30.5353 71.5371 30.7576 73.1646 31.4203Z" fill="#FFD09C"/>
<path d="M78.5583 18.1331C78.8416 17.591 79.1715 17.0641 79.3377 16.4752C79.721 15.1219 79.1927 13.6948 78.6711 12.3873C79.336 11.7459 80.4521 11.768 81.2425 12.2448C82.0338 12.7216 82.5451 13.554 82.8937 14.4101C83.4085 15.6768 83.6281 17.042 83.8156 18.3962C84.1158 20.5631 84.3456 22.7572 84.1395 24.9344C83.9335 27.1116 83.2643 29.2896 81.9227 31.0162C81.6691 31.342 81.3807 31.6602 81.0008 31.8214C80.7099 31.9452 80.3842 31.9681 80.0696 31.9351C79.2147 31.8443 78.415 31.3276 77.9825 30.5843C77.4049 29.5925 77.8001 28.9145 77.8951 27.9235C77.9901 26.9368 77.4092 25.7913 77.3057 24.7851C77.0733 22.5103 77.4957 20.1627 78.5583 18.1331" fill="#FFD09C"/>
<path d="M82.5622 31.2495C81.0373 33.3079 78.9969 34.9921 76.735 36.213C75.5893 36.8307 74.385 37.3364 73.1485 37.7428C71.9951 38.1212 70.8158 38.408 69.6231 38.6303C68.8247 38.7788 67.8786 38.8713 67.323 39.5416C66.3212 40.7506 66.553 43.9459 67.6448 45.1143C69.1865 44.9607 70.6478 44.3379 72.0053 43.5879C75.8734 41.4531 79.1283 38.2214 81.2909 34.3685C81.832 33.4038 82.3035 32.3347 82.5622 31.2495Z" fill="#EABE92"/>
<path d="M34.5106 56.8715C34.1802 58.2528 36.1809 58.3173 36.7231 59.685C37.0123 60.4156 32.8877 62.3187 33.4598 62.8736C34.7699 64.1454 38.1118 64.9489 39.8166 65.5691C41.811 66.2954 47.1534 65.5089 48.7104 64.4178C50.7737 62.9711 51.8739 60.8491 51.6198 58.6194C51.4632 57.2457 50.6537 55.9857 49.7154 54.9133C48.2823 53.2749 46.6702 48.7882 44.5969 49.142C37.5941 50.3384 35.3129 53.5167 34.5106 56.8715" fill="#455AF4"/>
<path d="M82.0049 12.6048C81.2934 11.4772 80.3588 10.4327 79.1316 9.91263C77.9036 9.39168 76.344 9.50538 75.4009 10.448C74.4384 11.4093 74.3587 13.074 75.1143 14.2058C75.8699 15.3368 77.3303 15.9019 78.6779 15.7195C78.9408 15.6847 79.2139 15.6245 79.4641 15.7093C80.023 15.8968 80.1281 16.6299 80.4835 17.0999C80.8914 17.6404 81.7234 17.8025 82.3043 17.4546C83.9105 16.4933 82.7063 13.7154 82.0049 12.6048" fill="#FFD09C"/>
<path d="M46.9586 29.6927C46.0155 30.2841 45.2389 31.1954 44.5887 32.1711C42.5361 35.2502 41.629 39.0385 41.5469 42.6419C41.4646 46.2454 42.1508 49.7054 42.9944 53.0543C43.4313 54.7885 43.9332 56.5491 44.9719 57.8642C46.3943 59.6646 48.7019 60.4138 51.0004 60.2738C53.2989 60.1338 55.5971 59.1853 57.7541 57.9787C60.0269 56.7069 61.2563 53.3003 63.3887 51.5864C63.7025 51.3344 64.621 51.158 65.3989 50.4707C67.3125 48.7806 68.6278 46.5381 69.2069 44.1717C69.6079 42.5333 69.7432 40.777 69.1739 39.3414C68.5424 37.7497 67.1549 36.7842 65.8276 35.8941C62.5993 33.728 59.334 31.5933 55.5947 30.4563C52.8723 29.6291 50.0456 27.7565 46.9586 29.6927" fill="#FFD09C"/>
<path d="M46.9269 44.3203C47.3746 45.341 47.8718 46.3837 48.7181 47.1092C49.3854 47.681 50.2218 48.0128 51.0529 48.2979C52.9275 48.9427 54.8647 49.4043 56.8283 49.6741C55.2664 48.8833 53.7042 48.0917 52.1685 47.2509C51.3435 46.7995 50.5212 46.3303 49.802 45.7236C49.0535 45.0924 48.4318 44.3262 47.8424 43.5448C46.9836 42.4053 46.2394 41.1996 45.447 40.0177C45.6427 41.545 46.3315 42.911 46.9269 44.3203Z" fill="#DDB38A"/>
<path d="M60.4067 49.6876C60.9483 50.1406 61.6125 50.4249 62.2884 50.6302C63.2168 50.9119 64.2325 51.0544 65.1489 50.7346C64.4058 50.9679 63.7047 51.3353 63.0885 51.8121C62.9724 51.9021 62.8546 51.9979 62.7128 52.0361C62.5468 52.0811 62.3709 52.0404 62.2047 51.9954C61.2435 51.74 60.3138 51.365 59.4433 50.8839C59.337 50.8254 59.2271 50.7609 59.1626 50.6574C59.1055 50.5666 59.0907 50.4563 59.0788 50.3494C58.9691 49.3592 59.0019 48.3546 59.1759 47.3747C59.1478 47.5333 59.4706 48.3385 59.5478 48.5345C59.7244 48.9842 60.0385 49.3796 60.4067 49.6876Z" fill="#DDB38A"/>
<path d="M54.5563 51.3148C54.9302 51.2902 55.3167 51.325 55.6544 51.4862C55.9923 51.6483 56.2756 51.952 56.3462 52.3202C56.6715 52.0929 57.014 51.8595 57.4077 51.8095C57.8013 51.7594 58.2574 51.9605 58.3544 52.3457C58.4488 52.7207 58.186 53.0813 58.0802 53.4529C58.1339 53.1611 57.9022 52.8658 57.6155 52.7886C57.3287 52.7105 57.0161 52.8166 56.7838 53.0024C56.5516 53.1874 56.3874 53.4436 56.2415 53.7024C56.0111 52.8819 55.1851 52.2922 54.3342 52.2668C53.4831 52.2422 52.656 52.7419 52.2136 53.4699C52.5081 52.9854 52.4463 52.4289 52.9105 51.9876C53.3532 51.5668 53.9529 51.3547 54.5563 51.3148Z" fill="#DDB38A"/>
<path d="M53.2751 54.5449C53.9391 54.4066 54.7237 54.824 54.8252 55.4943C55.0522 55.2916 55.2944 55.0956 55.5803 54.9903C55.8661 54.8851 56.2058 54.8851 56.4568 55.0574C56.7079 55.2296 56.8271 55.5995 56.6656 55.8575C56.5435 55.6454 56.2858 55.5359 56.0411 55.5427C55.7964 55.5495 55.5642 55.6555 55.3597 55.7896C54.9688 56.0475 54.6531 56.4183 54.4613 56.8459C54.2679 56.4904 54.234 56.056 53.9958 55.7294C53.67 55.2822 52.9882 55.1651 52.5085 55.44C52.0264 55.7166 51.8033 56.3072 51.8893 56.8417C51.5601 55.8422 52.2481 54.7587 53.2751 54.5449" fill="#DDB38A"/>
<path d="M76.1083 13.622C76.936 14.0216 77.9571 13.9877 78.756 13.5354C78.9663 13.8511 79.359 14.0352 79.7355 13.9936C80.1121 13.9529 80.4555 13.689 80.5921 13.3352C80.7659 13.6517 80.6803 14.0411 80.5895 14.3898C80.4996 14.7326 80.4046 15.0881 80.179 15.3613C79.8237 15.7906 79.225 15.9247 78.6695 15.9654C77.6976 16.035 76.7121 15.8992 75.7962 15.5675C75.4323 15.4351 75.066 15.2637 74.8183 14.9668C74.4409 14.5146 74.4113 13.8757 74.3985 13.2868C74.3875 12.7489 74.6436 11.8826 74.8065 11.3727C75.2059 12.1923 75.2254 13.196 76.1083 13.622" fill="#EABE92"/>
<path d="M75.0711 31.5117C75.0372 31.5117 75.0033 31.5083 74.9702 31.5015C74.6539 31.4328 74.5173 31.0451 74.5479 30.7235C74.6081 30.0753 75.0957 29.5458 75.6266 29.1691C76.2186 28.7491 77.0811 28.2909 77.8528 28.2494C77.768 28.7873 77.6306 29.2429 77.6883 29.7401C77.5484 29.7885 77.4118 29.8487 77.2821 29.9242C76.5604 30.3434 76.1194 31.1944 75.329 31.4625C75.2459 31.4905 75.1585 31.5117 75.0711 31.5117" fill="#FFE6CB"/>
<path d="M77.6883 29.7402C77.6306 29.243 77.768 28.7874 77.8528 28.2495C77.8901 28.2478 77.9274 28.247 77.9639 28.247C77.9995 28.247 78.0343 28.2478 78.0691 28.2495C78.4677 28.2716 80.0188 28.9639 79.2428 29.4178C79.1097 29.4959 78.9511 29.512 78.7976 29.5281C78.4236 29.568 78.0419 29.6181 77.6883 29.7402Z" fill="#FFE6CB"/>
<path d="M76.0642 11.7385C75.6953 11.7385 75.4832 11.4585 75.8547 10.8264C76.2134 10.2172 76.8656 9.96352 77.5322 9.96352C77.9766 9.96352 78.4278 10.0764 78.8035 10.2715C78.9281 10.336 79.0596 10.5057 78.9485 10.5922C78.9197 10.6143 78.884 10.6202 78.8467 10.6202C78.8298 10.6202 78.8119 10.6185 78.7941 10.6168C78.5762 10.5956 78.3506 10.5566 78.1318 10.5566C77.9698 10.5566 77.8121 10.5778 77.6645 10.644C77.4219 10.7526 77.2455 10.9656 77.0836 11.176C76.8062 11.5357 76.3788 11.7385 76.0642 11.7385" fill="#FFE6CB"/>
<path d="M43.2041 24.6782C42.8379 21.3454 40.6084 18.2791 37.5514 16.9046C37.4111 16.841 37.2607 16.7799 37.1081 16.8002C36.9648 16.8189 36.8408 16.9063 36.7277 16.9962C34.8041 18.5294 34.44 21.3064 34.6062 23.7619C34.9049 28.1705 36.4565 32.4883 39.0327 36.0781C39.9547 37.3627 41.0291 38.576 42.3919 39.3778C43.4315 39.9887 44.6065 40.34 45.7939 40.5495C47.3514 40.8253 49.0478 40.8414 50.4099 40.0379C52.7494 38.6566 53.378 35.2254 52.8479 32.7233C52.2931 30.1041 50.3956 27.6775 48.1633 26.2809C46.6757 25.3502 44.9581 24.7792 43.2041 24.6782" fill="#FFD09C"/>
<path d="M44.0382 10.3623C44.0146 9.75055 43.9434 9.13372 44.0457 8.52961C44.281 7.14238 45.3711 6.0818 46.4028 5.12474C46.0784 4.26016 45.0609 3.80029 44.1421 3.89023C43.2233 3.98102 42.4036 4.513 41.722 5.13662C40.7127 6.0589 39.9285 7.19753 39.1772 8.34041C37.9759 10.1671 36.8263 12.0499 36.0778 14.1049C35.3292 16.1598 34.9982 18.4142 35.4685 20.5498C35.5573 20.9528 35.6817 21.3643 35.955 21.6731C36.1644 21.9098 36.449 22.0711 36.7472 22.1763C37.5583 22.4614 38.5022 22.3383 39.2123 21.853C40.1598 21.2056 40.0938 20.4242 40.4331 19.4883C40.7711 18.5559 41.7879 17.7711 42.3128 16.9065C43.4996 14.9525 44.1259 12.6506 44.0382 10.3623" fill="#FFD09C"/>
<path d="M34.7908 20.4861C35.284 23.0001 36.4034 25.3979 37.9219 27.4715C38.6911 28.5219 39.5616 29.4968 40.5038 30.3944C41.3825 31.2319 42.3245 31.998 43.3063 32.7107C43.9635 33.1884 44.7782 33.678 44.9921 34.5231C45.3777 36.0452 43.7965 38.8307 42.3086 39.417C40.9823 38.616 39.9304 37.4248 39.0259 36.1648C36.4498 32.575 34.8981 28.2572 34.5995 23.8486C34.5248 22.7447 34.5579 21.5772 34.7908 20.4861" fill="#EABE92"/>
<path d="M43.299 3.88759C44.4262 3.17573 45.7185 2.63357 47.0505 2.69126C48.3824 2.74896 49.7418 3.5219 50.189 4.77847C50.6455 6.0605 50.0032 7.59791 48.8348 8.29449C47.6665 8.99193 46.1051 8.87484 44.966 8.13074C44.7443 7.98565 44.5234 7.81427 44.2606 7.78287C43.6759 7.7133 43.2657 8.32928 42.7433 8.60079C42.1425 8.91387 41.3218 8.70261 40.9466 8.13838C39.9092 6.58061 42.189 4.58927 43.299 3.88759" fill="#FFD09C"/>
<path d="M48.1871 7.3409C47.2689 7.34599 46.3608 6.87679 45.8331 6.12505C45.5082 6.31935 45.0748 6.3168 44.7525 6.11826C44.4301 5.91887 44.233 5.53282 44.2611 5.15526C43.9686 5.36567 43.8794 5.75428 43.8115 6.10808C43.7446 6.4568 43.6781 6.81824 43.7649 7.16187C43.9014 7.70234 44.3841 8.08076 44.8689 8.35651C45.7158 8.83674 46.6647 9.13794 47.6341 9.23127C48.0195 9.2686 48.4236 9.27114 48.7754 9.10909C49.3102 8.86303 49.6114 8.29965 49.8751 7.77276C50.1162 7.29168 50.2569 6.39995 50.3284 5.86882C49.6159 6.43729 49.1676 7.33581 48.1871 7.3409" fill="#EABE92"/>
<path d="M41.6382 23.9875C41.6056 23.9875 41.5723 23.9833 41.5389 23.9757C41.4202 23.9477 41.3185 23.8713 41.2311 23.7865C40.6321 23.2044 40.5993 22.2465 40.1276 21.5576C40.0431 21.4337 39.946 21.3217 39.84 21.2173C40.1056 20.7931 40.1774 20.3222 40.3313 19.8004C41.0106 20.1686 41.5926 20.9543 41.9471 21.5881C42.265 22.1557 42.4777 22.8438 42.2539 23.4547C42.1548 23.7262 41.9128 23.9875 41.6382 23.9875Z" fill="#FFE6CB"/>
<path d="M39.84 21.2173C39.5733 20.9551 39.2504 20.7455 38.9293 20.5487C38.7978 20.4681 38.6613 20.3849 38.5746 20.2577C38.2401 19.7656 38.871 19.6171 39.4429 19.6171C39.7349 19.6171 40.0114 19.6561 40.1362 19.707C40.2021 19.7342 40.2671 19.7647 40.3313 19.8004C40.1774 20.3222 40.1056 20.7931 39.84 21.2173" fill="#FFE6CB"/>
<path d="M49.256 5.71436C48.9269 5.71436 48.4787 5.27571 48.357 4.71234C48.3009 4.45356 48.2328 4.1846 48.0608 3.98267C47.8132 3.6925 47.4108 3.60256 47.0519 3.47275C47.0018 3.45408 46.9479 3.43118 46.9238 3.38451C46.8603 3.25894 47.0518 3.16137 47.1923 3.15712C47.2221 3.15543 47.252 3.15543 47.282 3.15543C48.321 3.15543 49.5157 3.78413 49.6164 4.9253C49.6662 5.48952 49.4916 5.71436 49.256 5.71436" fill="#FFE6CB"/>
<path d="M33.2402 47.5342C32.6049 47.4129 31.9584 47.3281 31.309 47.2822C32.698 45.5488 33.7235 43.5719 33.9308 42.2424C34.2084 40.4623 33.6761 38.7951 32.8501 37.2373C33.4936 40.0686 32.898 43.1698 31.2205 45.5437C30.89 46.0113 30.5119 46.4592 30.0258 46.7621C29.2954 47.2161 28.3528 47.3255 27.7423 47.9313C28.4732 47.9305 29.2039 47.8363 29.9108 47.6513C29.419 47.838 28.9736 48.1451 28.6247 48.5388C29.8712 48.0671 31.1926 47.8015 32.5239 47.7481C32.9946 47.7294 33.4439 47.7167 33.862 47.6641C33.6555 47.6174 33.4484 47.5733 33.2402 47.5342" fill="#2F43A3"/>
<path d="M42.2084 49.6739C42.2264 49.6688 43.1914 54.1097 45.4553 56.0349C51.478 61.157 57.0691 58.3495 57.0691 58.3495L50.3968 62.82C50.3968 62.82 47.1572 63.9722 45.0621 61.4599C40.8221 56.3751 41.6122 49.8529 41.6122 49.8529L42.2084 49.6739" fill="#F27949"/>
<path d="M52.1643 32.1677C52.3087 33.717 52.55 35.2731 53.1233 36.7188C53.6967 38.1655 54.6263 39.5052 55.928 40.3562C57.9268 41.6637 60.6618 41.6323 62.7385 40.4521C64.8151 39.2727 66.2136 37.0531 66.5957 34.6944C66.7184 33.9367 66.7047 33.0577 66.1473 32.53C65.8315 32.2305 65.3955 32.1015 64.9747 31.9912C60.8407 30.9077 56.5374 30.71 52.3795 29.7343C51.6372 29.5604 51.7555 29.7445 51.9101 30.38C52.0533 30.968 52.1082 31.5661 52.1643 32.1677" fill="#DDB38A"/>
<path d="M50.3968 62.82L57.0691 58.3494C57.0691 58.3494 52.3145 60.737 46.8515 57.0912C46.621 58.6608 45.2865 59.2887 43.866 59.7859C44.2119 60.3544 44.608 60.9152 45.0621 61.4599C47.1572 63.9722 50.3968 62.82 50.3968 62.82Z" fill="#CC6440"/>
<path d="M54.2629 28.7034C54.4231 28.1731 54.3545 27.6046 54.2882 27.0548C54.0737 25.2781 53.8993 23.4667 54.2366 21.7087C54.5739 19.9515 55.4934 18.23 57.028 17.3102C58.6414 16.3447 60.7504 16.4117 62.438 17.2415C64.1255 18.0721 65.4117 19.585 66.2359 21.2759C67.0601 22.9669 67.4564 24.8344 67.7 26.7001C67.8656 27.9686 67.964 29.254 67.8393 30.5267C67.6869 32.0845 67.1966 33.6075 66.4124 34.9616C65.7915 36.0341 64.9555 37.0251 63.845 37.574C62.9827 38 62.0084 38.1349 61.0501 38.2146C58.8646 38.3962 56.4306 38.2299 54.8587 36.6993C53.0471 34.9362 53.0173 32.0039 51.5752 29.9268C51.4526 29.7495 51.3165 29.5722 51.2749 29.3609C51.2332 29.1505 51.323 28.8943 51.528 28.8289C51.7229 28.7678 51.922 28.896 52.0863 29.0173C52.9747 29.6749 53.778 30.049 54.2629 28.7034Z" fill="#455AF4"/>
<path d="M60.7072 27.7886C60.1827 27.9999 59.6722 28.3274 59.3098 28.8356C58.9472 29.3439 58.7539 30.0549 58.905 30.681C59.0559 31.308 59.5999 31.784 60.1408 31.6576C60.3341 31.6126 60.5128 31.4998 60.6944 31.4048C61.3211 31.0764 62.014 30.9449 62.6828 31.0297C63.3957 31.1188 64.066 31.4446 64.7105 31.8035C64.9205 31.9198 65.1346 32.0428 65.3675 32.0649C65.8514 32.1115 66.3296 31.6848 66.5118 31.1341C66.694 30.5835 66.6109 29.9505 66.3709 29.4508C66.131 28.9519 65.7496 28.5726 65.3369 28.279C64.0206 27.3406 62.1889 27.1913 60.7072 27.7886" fill="#AA3F1F"/>
<path d="M66.6196 30.2629C66.5904 29.9779 66.5106 29.6996 66.3924 29.4535C66.1524 28.9538 65.7711 28.5754 65.3584 28.2809C64.0421 27.3426 62.2104 27.1932 60.7286 27.7905C60.2041 28.0018 59.6937 28.3293 59.3312 28.8375C59.0556 29.2244 58.8784 29.7276 58.8752 30.2222C58.9889 30.1314 59.0893 30.0339 59.1515 29.9872C59.8292 29.479 60.6117 29.1099 61.4364 28.9156C62.5534 28.6517 63.7442 28.7094 64.8305 29.0802C65.3107 29.2439 65.7751 29.4705 66.1633 29.7971C66.3304 29.938 66.4806 30.0949 66.6196 30.2629" fill="white"/>
<path d="M65.352 32.0632C65.3987 32.0683 65.4455 32.0666 65.4919 32.0632C65.4739 31.913 65.4501 31.7645 65.4186 31.6169C65.3767 31.4209 65.322 31.2249 65.2233 31.0501C65.0876 30.81 64.8752 30.6217 64.648 30.4655C64.3143 30.2365 63.932 30.0634 63.5284 30.0303C63.1246 29.9972 62.6983 30.116 62.4106 30.4011C61.9813 30.0413 61.2957 30.1066 60.8621 30.4613C60.4912 30.765 60.3538 31.1978 60.2107 31.6313C60.3717 31.577 60.5243 31.4845 60.6788 31.4031C61.3055 31.0747 61.9984 30.9441 62.6673 31.0281C63.3802 31.118 64.0505 31.4438 64.695 31.8019C64.9049 31.919 65.119 32.0411 65.352 32.0632Z" fill="#DB6F5D"/>
<path d="M66.3924 29.4535C66.1524 28.9538 65.7711 28.5754 65.3584 28.2809C64.0421 27.3426 62.2104 27.1932 60.7286 27.7905C60.2041 28.0018 59.6937 28.3293 59.3312 28.8375C59.0556 29.2244 58.8784 29.7276 58.8752 30.2222C58.9889 30.1314 59.0893 30.0339 59.1515 29.9872C59.349 29.8387 59.5557 29.703 59.7694 29.5791C60.0012 28.9928 60.4539 28.488 61.0049 28.1715C61.7826 27.7244 62.7267 27.6242 63.6124 27.7651C63.8673 27.8058 64.121 27.866 64.3557 27.9738C64.6156 28.0934 64.8466 28.2682 65.0554 28.4642C65.4055 28.7917 65.6958 29.182 65.9145 29.6096C66 29.6682 66.0837 29.7301 66.1633 29.7971C66.3304 29.938 66.4806 30.0949 66.6196 30.2629C66.5904 29.9779 66.5106 29.6996 66.3924 29.4535" fill="#EAEAEA"/>
<path d="M59.6188 23.0509C59.2236 23.213 58.8698 23.5023 58.6887 23.89C58.6521 23.9681 58.6223 24.0521 58.6248 24.1386C58.6304 24.3304 58.793 24.484 58.9685 24.5595C59.3648 24.7309 59.82 24.6129 60.2349 24.4933C60.4124 24.4424 60.5899 24.3915 60.7675 24.3397C61.0455 24.26 61.3354 24.1726 61.5427 23.9707C61.7498 23.7687 61.8387 23.4141 61.6575 23.1884C61.5974 23.1137 61.5143 23.0603 61.4284 23.017C60.8836 22.7421 60.1654 22.8261 59.6188 23.0509Z" fill="#FFD09C"/>
<path d="M59.2922 24.064C59.8498 24.1081 60.4117 24.1064 60.9679 24.0479C61.162 24.0275 61.3883 23.9766 61.4651 23.7967C61.4988 23.7178 61.4606 23.6228 61.3964 23.5659C61.3322 23.5099 61.2474 23.4828 61.1648 23.4599C60.7961 23.3581 60.4098 23.3004 60.03 23.347C59.7592 23.3801 59.4918 23.4692 59.2634 23.6194C59.1936 23.6661 59.0008 23.7653 58.978 23.8476C58.9325 24.0122 59.1898 24.0555 59.2922 24.064Z" fill="white"/>
<path d="M59.5639 23.4514C59.5351 23.5167 59.5211 23.594 59.5268 23.6847C59.5363 23.8358 59.615 23.9749 59.7291 24.0742C60.0414 24.0852 60.3541 24.0801 60.6656 24.0589C60.6793 24.047 60.6932 24.036 60.7059 24.0224C60.8542 23.868 60.907 23.6177 60.8034 23.4294C60.7879 23.4014 60.7687 23.3759 60.7479 23.3521C60.5115 23.3148 60.2716 23.3029 60.0344 23.3326C59.8739 23.3521 59.7146 23.392 59.5639 23.4514" fill="#1E1E1E"/>
<path d="M66.3413 23.4148C66.7079 23.6346 67.0148 23.9731 67.1362 24.3829C67.1608 24.4661 67.1777 24.5535 67.1624 24.6383C67.1284 24.8267 66.9448 24.9548 66.7599 25.0031C66.3426 25.1143 65.9099 24.9302 65.5175 24.7494C65.3495 24.6722 65.1815 24.5959 65.0135 24.5187C64.7507 24.3982 64.4768 24.2684 64.302 24.0384C64.1272 23.8076 64.0921 23.4437 64.3048 23.2468C64.3754 23.1823 64.4655 23.1416 64.5569 23.1119C65.1364 22.9218 65.8341 23.1111 66.3413 23.4148" fill="#FFD09C"/>
<path d="M66.5937 24.4857C66.0345 24.4679 65.4764 24.4034 64.9302 24.2829C64.7396 24.2405 64.5204 24.1641 64.4644 23.9775C64.4397 23.8952 64.4884 23.8052 64.5585 23.756C64.6287 23.7068 64.7159 23.6898 64.8006 23.6763C65.1784 23.616 65.5687 23.6024 65.9408 23.6915C66.2062 23.7543 66.462 23.8722 66.6721 24.0479C66.7362 24.1013 66.9167 24.2218 66.9301 24.3067C66.9568 24.4746 66.6963 24.4891 66.5937 24.4857" fill="white"/>
<path d="M66.3914 23.863C66.4126 23.9309 66.4178 24.009 66.402 24.0989C66.3757 24.2474 66.2819 24.3772 66.1573 24.4629C65.8458 24.4383 65.5356 24.3993 65.2283 24.3433C65.2161 24.3297 65.2036 24.3161 65.1925 24.3017C65.0625 24.1311 65.0381 23.8766 65.1621 23.7018C65.1806 23.6755 65.2025 23.6526 65.2258 23.6314C65.4651 23.6203 65.7046 23.6356 65.9371 23.6916C66.0945 23.729 66.2482 23.7858 66.3914 23.863Z" fill="#1E1E1E"/>
<path d="M54.7931 35.4122C54.3904 34.82 54.1158 34.1523 53.8442 33.4888C53.3392 32.2568 52.8343 31.0248 52.3292 29.7929C52.939 29.8862 53.3808 30.4165 53.7019 30.9434C54.0233 31.4703 54.3055 32.0549 54.8157 32.4019C54.326 31.7435 54.0574 30.9239 54.0625 30.1034C54.7234 29.7462 55.4571 30.6591 56.1994 30.5429C55.9685 30.5794 55.1401 28.1587 55.0513 27.894C54.7452 26.9802 54.5181 26.0393 54.3841 25.0848C54.2516 24.1396 54.2098 23.18 54.2764 22.228C54.3233 21.5569 54.5573 20.8518 54.6816 20.1773C54.4823 20.6668 54.3333 21.1776 54.2346 21.6918C53.8974 23.4489 54.0717 25.2612 54.2862 27.0371C54.3525 27.5877 54.4212 28.1562 54.2608 28.6865C53.7761 30.0313 52.9728 29.658 52.0843 29.0004C51.92 28.8791 51.7209 28.751 51.5261 28.812C51.321 28.8774 51.2313 29.1328 51.2729 29.344C51.3146 29.5553 51.4507 29.7326 51.5733 29.9091C53.0153 31.9861 53.0451 34.9184 54.8568 36.6824C55.9907 37.7862 57.5733 38.1799 59.1877 38.2461C57.4644 37.7217 55.7941 36.8852 54.7931 35.4122" fill="#2F43A3"/>
<path d="M56.5662 19.9141C56.5488 19.9141 56.5313 19.9141 56.5136 19.9124C55.7143 19.853 55.9062 19.1258 56.281 18.7508C56.7146 18.3181 57.2094 17.9618 57.7643 17.6996C58.4663 17.3687 59.244 17.1897 60.0206 17.1897C60.4626 17.1897 60.9043 17.2474 61.3314 17.3678C61.4761 17.4094 61.6492 17.4985 61.6365 17.6487C61.6226 17.8116 61.41 17.8608 61.2467 17.8633C60.5538 17.8735 59.8407 17.8328 59.1887 18.0678C58.5511 18.2969 58.0324 18.7703 57.5731 19.2692C57.2947 19.5713 56.9692 19.9141 56.5662 19.9141" fill="#6A7BF6"/>
<path d="M55.4323 22.1016C55.3164 22.1016 55.2044 22.0693 55.113 21.9955C55.039 21.9361 54.9852 21.8538 54.9433 21.769C54.734 21.3422 54.8267 20.5871 55.3262 20.3724C55.4145 20.3342 55.4949 20.3173 55.568 20.3173C56.0257 20.3173 56.1919 20.9875 56.1626 21.3906C56.1546 21.5009 56.1419 21.6146 56.0927 21.7138C56.0479 21.8055 55.9748 21.8801 55.8938 21.9412C55.763 22.0396 55.594 22.1016 55.4323 22.1016" fill="#6A7BF6"/>
<path d="M50.6114 42.0293C50.0399 42.0293 49.6324 41.4744 49.3998 40.9509C49.3375 40.8109 49.2802 40.6683 49.2271 40.525C49.6399 40.4164 50.0374 40.2577 50.41 40.0379C50.6637 39.8878 50.8971 39.7138 51.1113 39.5195C51.2012 39.651 51.2853 39.7868 51.3583 39.9285C51.5625 40.3247 51.6761 40.788 51.5623 41.219C51.4484 41.65 51.0641 42.0259 50.6186 42.0293C50.6161 42.0293 50.6137 42.0293 50.6114 42.0293Z" fill="#FFE6CB"/>
<path d="M49.2271 40.5249C49.0414 40.0226 48.9046 39.5017 48.7685 38.9833C48.639 38.4894 47.9553 36.9766 48.3555 36.5473C48.4654 36.4294 48.578 36.3802 48.6896 36.3802C49.148 36.3802 49.5891 37.21 49.753 37.5103C50.0033 37.9693 50.286 38.4114 50.5984 38.8305C50.7692 39.0596 50.9499 39.2836 51.1114 39.5195C50.8971 39.7138 50.6637 39.8877 50.41 40.0379C50.0374 40.2576 49.6399 40.4163 49.2271 40.5249Z" fill="#FFE6CB"/>
<path d="M7.30173 33.212C6.46586 32.9295 5.54527 32.7674 4.88945 32.1769C4.78522 32.0827 4.68557 31.9715 4.65674 31.8341C4.60831 31.6033 4.78505 31.3717 5.00267 31.28C5.22029 31.1884 5.46657 31.2045 5.70123 31.2308C6.99557 31.3734 8.24666 31.7696 9.4879 32.1633C10.9969 32.6427 12.5059 33.1212 14.0149 33.5997C14.5871 33.7813 15.2107 34.0028 15.5105 34.5237C15.7876 35.0048 15.459 36.2037 14.6518 36.7085C12.913 37.7954 12.3698 39.4601 11.4907 37.5968C10.6247 35.7616 9.57542 33.9815 7.30173 33.212" fill="#FFD09C"/>
<path d="M15.5061 34.5163C15.2063 33.9962 14.5827 33.7747 14.0105 33.5931C13.5584 33.4497 13.1063 33.3064 12.6543 33.163C13.3111 33.5227 14.1081 33.7077 14.5299 34.3203C14.6168 34.4467 14.6844 34.5909 14.6975 34.7436C14.7126 34.921 14.6534 35.0975 14.5669 35.2527C14.2368 35.8449 13.5511 36.1436 13.1223 36.668C12.7597 37.1117 12.6082 37.7167 12.702 38.28C13.1726 37.9754 13.7512 37.2619 14.6474 36.701C15.4546 36.1971 15.7832 34.9973 15.5061 34.5163" fill="#EABE92"/>
<path d="M12.5949 37.9006C12.5262 38.0287 12.5684 38.1925 12.6607 38.3062C12.6728 38.2985 12.6848 38.2909 12.697 38.2832L12.5949 37.9006" fill="#EABE92"/>
<path d="M13.9063 37.8024C13.9063 37.8024 13.7613 36.9811 12.5874 36.9734C11.4346 36.9666 11.4907 37.597 11.4907 37.597L11.5273 40.7253C11.5273 40.7253 11.8612 40.0831 12.6722 39.8404C13.7759 39.5112 14.5717 40.6184 14.5717 40.6184L13.9063 37.8024Z" fill="#F27949"/>
<path d="M21.2459 24.3414C20.3859 24.1437 19.4537 24.0741 18.7421 23.5523C18.6289 23.4692 18.5187 23.3691 18.4763 23.235C18.405 23.0102 18.5576 22.7624 18.7651 22.6496C18.9725 22.5367 19.219 22.5274 19.4551 22.5299C20.7573 22.5427 22.0417 22.8116 23.3161 23.0789C24.8655 23.4039 26.4148 23.7297 27.9641 24.0546C28.5516 24.1785 29.1942 24.3363 29.5446 24.8242C29.8684 25.2747 30.0047 25.9764 29.7868 26.4863C29.0729 28.1578 26.7381 29.8861 25.9612 27.9788C25.3536 26.4872 23.585 24.8793 21.2459 24.3414" fill="#FFD09C"/>
<path d="M28.5106 26.9022C28.1963 27.3018 27.8655 27.7032 27.6899 28.1808C27.6232 28.3624 27.5833 28.5592 27.5771 28.7544C28.4437 28.4422 29.3677 27.4775 29.772 26.5306C29.9899 26.0207 29.8536 25.319 29.5299 24.8676C29.1794 24.3806 28.5368 24.2219 27.9493 24.0989L27.9335 24.0955C28.2009 24.2448 28.4683 24.3942 28.7357 24.5435C28.9238 24.6487 29.1217 24.7632 29.2235 24.9533C29.3256 25.1433 29.3114 25.3758 29.2591 25.5854C29.1358 26.0792 28.825 26.5017 28.5106 26.9022Z" fill="#DDB38A"/>
<path d="M25.9411 28.352C25.9411 28.352 26.1556 27.6045 27.2609 27.5069C28.5679 27.3907 28.9098 27.7869 28.9098 27.7869L29.32 31.6763C29.32 31.6763 28.8852 30.5554 27.6322 30.6284C26.4526 30.6971 25.8342 31.084 25.8342 31.084L25.9411 28.352" fill="#F27949"/>
</svg>
