<svg width="425" height="392" viewBox="0 0 425 392" fill="none" xmlns="http://www.w3.org/2000/svg">
<rect width="425" height="392" fill="white"/>
<path d="M362.807 372.97C362.807 377.027 288.111 380.316 195.967 380.316C103.823 380.316 29.1252 377.027 29.1252 372.97C29.1252 368.912 103.823 365.623 195.967 365.623C288.111 365.623 362.807 368.912 362.807 372.97Z" fill="#E8E8E8"/>
<path d="M130.088 131.916C128.905 133.575 128.644 135.52 128.416 137.387C125.968 157.372 123.52 177.361 121.071 197.35C120.263 203.952 117.486 239.366 117.378 239.428C121.806 256.644 132.054 272.051 145.107 284.108C159.343 297.258 176.525 306.172 194.483 313.086C208.015 318.295 221.471 322.382 234.576 310.333C241.615 303.86 249.546 299.79 247.578 290.432C245.61 281.069 237.644 271.711 230.485 265.37C223.327 259.03 214.876 254.353 206.404 249.921C192.533 242.667 178.193 235.848 162.817 232.921C159.704 232.331 156.536 231.915 153.354 231.691C160.16 223.197 165.185 213.51 166.201 206.996C168.279 193.671 161.096 181.631 153.666 170.83C146.236 160.029 138.107 148.808 138.065 135.574C138.058 133.271 137.965 130.44 135.593 129.65C133.688 129.018 131.272 130.257 130.088 131.916" fill="#3A56BF"/>
<path d="M69.2835 300.987C82.283 310.745 98.1503 316.466 114.305 318.523C133.527 320.968 152.69 318.253 171.325 313.46C185.368 309.851 204.551 307.727 208.237 290.307C210.216 280.948 212.142 264.526 203.494 260.452C193.69 255.829 182.482 254.711 172.975 253.7C163.468 252.69 153.872 253.788 144.402 255.097C129.047 257.218 113.568 259.962 99.458 266.368C101.061 260.681 101.978 255.426 102.126 251.626C102.653 238.151 94.1293 227.022 85.5027 217.152C76.8762 207.282 67.5066 197.076 65.9391 183.934C65.6661 181.647 65.2472 178.845 62.8 178.334C60.834 177.927 58.5771 179.436 57.593 181.219C56.609 183.003 56.5749 184.969 56.5633 186.848C56.4373 206.983 56.3114 227.122 56.1855 247.26C56.1302 256.116 56.0047 295.537 69.2835 300.987" fill="#455AF4"/>
<path d="M78.1475 281.069C83.8755 279.053 89.3921 276.438 94.5791 273.282C92.0724 276.97 89.5653 280.653 87.0587 284.341C90.5045 281.63 93.9499 278.924 97.3957 276.217C95.0137 279.764 92.6318 283.306 90.2498 286.852C101.199 278.853 113.251 272.388 125.919 267.566C148.166 259.101 172.335 255.667 196.055 257.708C196.199 257.721 196.343 257.733 196.489 257.746C188.598 255.314 180.308 254.465 173.017 253.692C163.51 252.682 153.914 253.779 144.444 255.089C129.088 257.209 113.61 259.953 99.4997 266.36C101.102 260.673 102.019 255.417 102.168 251.618C102.694 238.143 94.171 227.014 85.5444 217.144C77.8266 208.313 69.5196 199.213 66.7308 187.983C65.9853 188.657 65.3815 189.476 65.1995 190.449C65.0208 191.405 65.2685 192.382 65.5581 193.309C67.8121 200.535 72.5806 206.646 76.789 212.932C81.8862 220.549 86.2691 228.643 89.8621 237.075C93.2572 245.045 95.9691 253.962 93.5098 262.265C91.1727 270.16 84.6202 275.984 78.1475 281.069" fill="#2F43A3"/>
<path d="M358.506 153.959C367.138 139.981 383.452 131.109 399.875 131.463C400.627 131.479 401.421 131.525 402.053 131.937C402.651 132.319 403.013 132.968 403.324 133.604C408.61 144.442 404.38 157.493 398.479 168.007C387.882 186.89 371.933 202.726 352.979 213.186C346.197 216.928 338.89 220.037 331.174 220.711C325.288 221.226 319.35 220.308 313.653 218.736C306.183 216.674 298.642 213.173 294.306 206.75C286.86 195.712 291.297 179.207 298.906 169.25C306.873 158.827 320.373 152.088 333.19 150.608C341.73 149.622 350.532 150.712 358.506 153.959Z" fill="#FFD09C"/>
<path d="M384.936 88.8529C386.324 86.1962 387.94 83.6144 388.755 80.7292C390.633 74.098 388.044 67.1052 385.489 60.6985C388.747 57.5555 394.215 57.6636 398.088 60.0001C401.966 62.3366 404.471 66.415 406.179 70.6099C408.702 76.817 409.778 83.5064 410.696 90.1417C412.167 100.76 413.294 111.511 412.284 122.179C411.274 132.847 407.995 143.519 401.421 151.98C400.179 153.576 398.766 155.135 396.904 155.925C395.479 156.532 393.883 156.644 392.341 156.482C388.152 156.037 384.234 153.506 382.114 149.864C379.284 145.004 381.221 141.682 381.686 136.826C382.152 131.991 379.305 126.378 378.798 121.447C377.659 110.301 379.729 98.7975 384.936 88.8529" fill="#FFD09C"/>
<path d="M404.555 153.123C397.083 163.209 387.084 171.462 376.001 177.444C370.387 180.471 364.486 182.949 358.427 184.94C352.776 186.794 346.997 188.2 341.153 189.289C337.241 190.017 332.605 190.47 329.882 193.754C324.974 199.678 326.109 215.335 331.459 221.06C339.014 220.308 346.174 217.256 352.826 213.581C371.779 203.121 387.729 187.285 398.325 168.406C400.977 163.679 403.287 158.441 404.555 153.123Z" fill="#EABE92"/>
<path d="M169.102 278.67C167.483 285.438 177.286 285.754 179.943 292.456C181.36 296.036 161.15 305.361 163.953 308.08C170.372 314.312 186.747 318.249 195.101 321.288C204.874 324.847 231.051 320.993 238.681 315.647C248.791 308.558 254.182 298.16 252.937 287.234C252.17 280.504 248.203 274.33 243.605 269.075C236.583 261.047 228.684 239.062 218.524 240.796C184.211 246.658 173.033 262.231 169.102 278.67" fill="#455AF4"/>
<path d="M401.824 61.7629C398.338 56.2377 393.758 51.1198 387.745 48.5713C381.728 46.0186 374.086 46.5758 369.465 51.1947C364.748 55.9051 364.358 64.062 368.06 69.608C371.763 75.1499 378.919 77.9188 385.522 77.025C386.81 76.8545 388.148 76.5593 389.374 76.9751C392.113 77.8939 392.628 81.4859 394.369 83.7891C396.368 86.4374 400.445 87.2315 403.291 85.527C411.162 80.8166 405.261 67.205 401.824 61.7629" fill="#FFD09C"/>
<path d="M230.097 145.494C225.476 148.392 221.671 152.857 218.484 157.638C208.427 172.726 203.982 191.289 203.58 208.946C203.176 226.602 206.539 243.556 210.673 259.966C212.813 268.464 215.273 277.09 220.362 283.535C227.332 292.357 238.639 296.028 249.902 295.342C261.165 294.656 272.426 290.008 282.995 284.096C294.132 277.864 300.156 261.172 310.605 252.773C312.142 251.539 316.643 250.674 320.455 247.306C329.831 239.025 336.276 228.037 339.114 216.441C341.079 208.413 341.742 199.807 338.952 192.773C335.858 184.974 329.059 180.242 322.555 175.881C306.737 165.267 290.736 154.807 272.414 149.236C259.074 145.183 245.224 136.007 230.097 145.494" fill="#FFD09C"/>
<path d="M229.942 217.169C232.136 222.17 234.572 227.28 238.718 230.835C241.988 233.637 246.087 235.262 250.159 236.659C259.345 239.819 268.837 242.081 278.459 243.403C270.805 239.528 263.15 235.649 255.625 231.529C251.583 229.317 247.554 227.018 244.03 224.045C240.362 220.952 237.315 217.198 234.428 213.369C230.219 207.786 226.573 201.878 222.69 196.086C223.649 203.57 227.024 210.263 229.942 217.169Z" fill="#DDB38A"/>
<path d="M295.992 243.469C298.647 245.689 301.901 247.082 305.213 248.088C309.762 249.468 314.739 250.167 319.23 248.599C315.588 249.742 312.153 251.543 309.134 253.879C308.565 254.32 307.987 254.79 307.293 254.977C306.479 255.197 305.617 254.998 304.803 254.777C300.093 253.526 295.537 251.688 291.272 249.331C290.751 249.044 290.213 248.728 289.897 248.221C289.617 247.776 289.544 247.236 289.486 246.712C288.948 241.86 289.109 236.937 289.962 232.136C289.824 232.913 291.406 236.858 291.784 237.819C292.649 240.022 294.188 241.96 295.992 243.469Z" fill="#DDB38A"/>
<path d="M267.326 251.443C269.158 251.322 271.051 251.493 272.706 252.283C274.362 253.077 275.75 254.565 276.096 256.37C277.69 255.255 279.368 254.112 281.297 253.867C283.226 253.621 285.461 254.607 285.936 256.494C286.399 258.332 285.111 260.099 284.593 261.92C284.856 260.49 283.72 259.043 282.315 258.664C280.91 258.282 279.379 258.802 278.24 259.712C277.103 260.619 276.298 261.874 275.583 263.142C274.454 259.122 270.407 256.232 266.237 256.108C262.067 255.987 258.014 258.436 255.846 262.003C257.289 259.629 256.987 256.902 259.261 254.74C261.43 252.678 264.369 251.638 267.326 251.443Z" fill="#DDB38A"/>
<path d="M261.048 267.27C264.302 266.593 268.146 268.638 268.644 271.923C269.756 270.929 270.943 269.968 272.344 269.453C273.744 268.937 275.408 268.937 276.638 269.781C277.869 270.625 278.453 272.438 277.662 273.702C277.063 272.663 275.8 272.126 274.601 272.159C273.403 272.193 272.265 272.712 271.263 273.369C269.347 274.633 267.8 276.45 266.86 278.545C265.913 276.803 265.747 274.675 264.579 273.074C262.983 270.883 259.642 270.309 257.292 271.656C254.929 273.012 253.836 275.905 254.258 278.525C252.645 273.627 256.016 268.318 261.048 267.27" fill="#DDB38A"/>
<path d="M372.93 66.7478C376.986 68.706 381.99 68.5397 385.904 66.3238C386.935 67.8704 388.859 68.7725 390.704 68.5688C392.549 68.3692 394.232 67.0763 394.901 65.3426C395.753 66.8934 395.333 68.8016 394.889 70.5104C394.448 72.19 393.983 73.9319 392.877 75.2706C391.136 77.3743 388.202 78.0312 385.48 78.2308C380.718 78.5717 375.889 77.9065 371.401 76.2809C369.618 75.6323 367.823 74.7925 366.61 73.3374C364.76 71.1215 364.615 67.9909 364.553 65.1056C364.499 62.4698 365.754 58.225 366.552 55.7264C368.509 59.7425 368.604 64.6608 372.93 66.7478" fill="#EABE92"/>
<path d="M367.848 154.408C367.682 154.408 367.516 154.391 367.354 154.358C365.804 154.021 365.135 152.121 365.284 150.545C365.579 147.369 367.969 144.775 370.57 142.929C373.471 140.871 377.697 138.626 381.479 138.422C381.063 141.058 380.39 143.291 380.672 145.727C379.987 145.964 379.318 146.259 378.682 146.629C375.145 148.683 372.985 152.853 369.112 154.167C368.704 154.304 368.276 154.408 367.848 154.408" fill="#FFE6CB"/>
<path d="M380.672 145.727C380.39 143.291 381.063 141.058 381.479 138.422C381.661 138.414 381.844 138.41 382.023 138.41C382.197 138.41 382.368 138.414 382.538 138.422C384.491 138.531 392.092 141.923 388.29 144.147C387.637 144.53 386.86 144.609 386.108 144.688C384.275 144.883 382.405 145.128 380.672 145.727Z" fill="#FFE6CB"/>
<path d="M372.714 57.5183C370.907 57.5183 369.868 56.1463 371.688 53.049C373.446 50.0639 376.641 48.8208 379.908 48.8208C382.085 48.8208 384.296 49.3737 386.137 50.33C386.748 50.6459 387.392 51.4775 386.847 51.9015C386.706 52.0096 386.532 52.0387 386.349 52.0387C386.266 52.0387 386.178 52.0304 386.091 52.0221C385.023 51.9181 383.918 51.7269 382.846 51.7269C382.052 51.7269 381.279 51.8308 380.556 52.1551C379.367 52.6873 378.503 53.7308 377.709 54.7619C376.35 56.5247 374.256 57.5183 372.714 57.5183" fill="#FFE6CB"/>
<path d="M211.7 120.923C209.906 104.593 198.981 89.5679 184.002 82.8328C183.314 82.521 182.577 82.2217 181.83 82.3214C181.128 82.4129 180.52 82.8411 179.966 83.2818C170.54 90.7944 168.756 104.402 169.571 116.433C171.034 138.036 178.637 159.193 191.26 176.783C195.778 183.078 201.043 189.023 207.721 192.952C212.814 195.945 218.572 197.666 224.39 198.693C232.022 200.044 240.334 200.123 247.009 196.186C258.472 189.418 261.552 172.605 258.955 160.345C256.236 147.51 246.938 135.62 236 128.777C228.711 124.216 220.295 121.418 211.7 120.923" fill="#FFD09C"/>
<path d="M215.787 50.7746C215.671 47.7771 215.323 44.7546 215.824 41.7945C216.977 34.997 222.318 29.8002 227.374 25.1106C225.784 20.8741 220.799 18.6208 216.297 19.0615C211.794 19.5063 207.778 22.1131 204.438 25.1688C199.492 29.688 195.65 35.2673 191.968 40.8674C186.082 49.8184 180.449 59.0438 176.781 69.1131C173.113 79.1825 171.491 90.2289 173.796 100.693C174.231 102.668 174.84 104.684 176.18 106.198C177.206 107.358 178.6 108.148 180.061 108.663C184.036 110.06 188.661 109.457 192.14 107.079C196.783 103.907 196.46 100.078 198.122 95.4922C199.778 90.9232 204.761 87.0775 207.333 82.8411C213.148 73.2665 216.217 61.9873 215.787 50.7746" fill="#FFD09C"/>
<path d="M170.475 100.382C172.892 112.7 178.377 124.449 185.817 134.61C189.586 139.757 193.852 144.534 198.469 148.932C202.775 153.036 207.39 156.79 212.201 160.282C215.421 162.623 219.414 165.022 220.462 169.163C222.351 176.621 214.603 190.27 207.312 193.143C200.814 189.218 195.659 183.381 191.227 177.207C178.604 159.617 171.001 138.46 169.538 116.858C169.172 111.449 169.334 105.728 170.475 100.382" fill="#EABE92"/>
<path d="M212.165 19.0493C217.688 15.5612 224.021 12.9046 230.547 13.1873C237.074 13.47 243.735 17.2574 245.926 23.4146C248.163 29.6965 245.016 37.2298 239.291 40.6431C233.566 44.0605 225.915 43.4868 220.333 39.8407C219.247 39.1298 218.165 38.29 216.877 38.1362C214.012 37.7953 212.002 40.8136 209.442 42.144C206.498 43.6781 202.477 42.6429 200.638 39.8782C195.555 32.2451 206.726 22.4875 212.165 19.0493" fill="#FFD09C"/>
<path d="M236.117 35.9701C231.618 35.995 227.168 33.696 224.582 30.0124C222.99 30.9645 220.867 30.952 219.287 29.9792C217.707 29.0021 216.742 27.1105 216.88 25.2604C215.446 26.2915 215.009 28.1956 214.676 29.9293C214.349 31.638 214.023 33.4091 214.448 35.0928C215.117 37.7411 217.482 39.5954 219.858 40.9466C224.008 43.2997 228.657 44.7756 233.407 45.2329C235.296 45.4158 237.276 45.4283 238.999 44.6342C241.62 43.4285 243.096 40.668 244.388 38.0862C245.569 35.7289 246.259 31.3595 246.609 28.7569C243.118 31.5424 240.921 35.9451 236.117 35.9701" fill="#EABE92"/>
<path d="M204.028 117.54C203.868 117.54 203.705 117.519 203.541 117.481C202.959 117.344 202.461 116.97 202.032 116.554C199.097 113.702 198.937 109.008 196.626 105.633C196.211 105.026 195.736 104.477 195.216 103.965C196.518 101.887 196.87 99.5793 197.624 97.0225C200.952 98.8268 203.804 102.677 205.541 105.782C207.099 108.564 208.141 111.935 207.045 114.929C206.559 116.259 205.373 117.54 204.028 117.54Z" fill="#FFE6CB"/>
<path d="M195.216 103.965C193.91 102.681 192.327 101.654 190.754 100.689C190.109 100.294 189.441 99.8869 189.016 99.2633C187.377 96.8519 190.468 96.1244 193.27 96.1244C194.701 96.1244 196.056 96.3156 196.668 96.5651C196.99 96.6981 197.309 96.8478 197.624 97.0224C196.87 99.5792 196.518 101.887 195.216 103.965" fill="#FFE6CB"/>
<path d="M241.355 28.0002C239.742 28.0002 237.546 25.8509 236.95 23.0904C236.675 21.8224 236.341 20.5045 235.498 19.515C234.285 18.0932 232.313 17.6525 230.554 17.0164C230.309 16.9249 230.045 16.8127 229.927 16.584C229.616 15.9687 230.554 15.4906 231.242 15.4698C231.388 15.4615 231.535 15.4615 231.682 15.4615C236.773 15.4615 242.627 18.5421 243.12 24.1339C243.365 26.8985 242.509 28.0002 241.355 28.0002" fill="#FFE6CB"/>
<path d="M162.877 232.917C159.764 232.323 156.597 231.907 153.414 231.683C160.22 223.189 165.245 213.502 166.261 206.987C167.621 198.265 165.013 190.096 160.966 182.462C164.119 196.336 161.2 211.531 152.98 223.164C151.361 225.455 149.508 227.65 147.127 229.134C143.548 231.358 138.929 231.895 135.938 234.863C139.519 234.859 143.099 234.397 146.563 233.491C144.154 234.406 141.971 235.911 140.261 237.84C146.369 235.528 152.844 234.227 159.368 233.965C161.674 233.874 163.875 233.811 165.924 233.553C164.912 233.325 163.898 233.109 162.877 232.917" fill="#2F43A3"/>
<path d="M206.821 243.402C206.909 243.377 211.638 265.138 222.731 274.571C252.242 299.669 279.639 285.912 279.639 285.912L246.945 307.818C246.945 307.818 231.07 313.464 220.804 301.154C200.029 276.238 203.9 244.279 203.9 244.279L206.821 243.402" fill="#F27949"/>
<path d="M255.605 157.622C256.313 165.213 257.495 172.838 260.304 179.922C263.114 187.011 267.669 193.575 274.047 197.745C283.841 204.152 297.243 203.998 307.419 198.215C317.594 192.436 324.447 181.56 326.319 170.002C326.92 166.29 326.853 161.983 324.122 159.397C322.574 157.929 320.438 157.297 318.376 156.757C298.119 151.448 277.033 150.479 256.66 145.698C253.022 144.846 253.602 145.748 254.36 148.862C255.061 151.743 255.33 154.674 255.605 157.622" fill="#DDB38A"/>
<path d="M246.945 307.818L279.639 285.912C279.639 285.912 256.341 297.611 229.572 279.747C228.443 287.438 221.904 290.515 214.943 292.951C216.639 295.736 218.579 298.485 220.805 301.154C231.07 313.464 246.945 307.818 246.945 307.818Z" fill="#CC6440"/>
<path d="M265.888 140.646C266.673 138.048 266.337 135.263 266.012 132.569C264.961 123.863 264.107 114.987 265.76 106.372C267.412 97.7623 271.918 89.3268 279.437 84.8201C287.343 80.0889 297.677 80.4174 305.947 84.4834C314.215 88.5535 320.518 95.9663 324.556 104.252C328.595 112.538 330.537 121.688 331.73 130.831C332.542 137.046 333.024 143.345 332.413 149.581C331.666 157.214 329.264 164.677 325.421 171.312C322.379 176.567 318.282 181.423 312.841 184.113C308.616 186.2 303.841 186.861 299.146 187.252C288.437 188.141 276.51 187.326 268.808 179.826C259.931 171.187 259.785 156.819 252.719 146.642C252.118 145.773 251.451 144.904 251.247 143.868C251.043 142.837 251.483 141.582 252.487 141.262C253.442 140.962 254.418 141.59 255.223 142.185C259.576 145.407 263.512 147.24 265.888 140.646Z" fill="#455AF4"/>
<path d="M297.465 136.165C294.895 137.2 292.394 138.805 290.618 141.295C288.841 143.785 287.894 147.269 288.635 150.338C289.374 153.41 292.04 155.742 294.69 155.123C295.637 154.902 296.513 154.35 297.403 153.884C300.473 152.275 303.868 151.631 307.146 152.046C310.639 152.483 313.923 154.079 317.082 155.838C318.11 156.407 319.159 157.01 320.301 157.118C322.672 157.347 325.015 155.256 325.908 152.558C326.801 149.859 326.393 146.758 325.217 144.309C324.042 141.865 322.173 140.006 320.151 138.568C313.701 133.97 304.726 133.238 297.465 136.165" fill="#AA3F1F"/>
<path d="M326.436 148.288C326.293 146.891 325.902 145.527 325.322 144.322C324.147 141.873 322.278 140.019 320.256 138.576C313.806 133.978 304.831 133.246 297.57 136.173C295 137.208 292.499 138.813 290.723 141.303C289.372 143.199 288.504 145.665 288.489 148.088C289.045 147.643 289.537 147.165 289.842 146.937C293.163 144.446 296.997 142.638 301.038 141.686C306.511 140.393 312.347 140.676 317.669 142.492C320.022 143.295 322.298 144.405 324.2 146.005C325.019 146.696 325.755 147.465 326.436 148.288" fill="white"/>
<path d="M320.225 157.11C320.454 157.135 320.683 157.127 320.91 157.11C320.822 156.374 320.706 155.647 320.551 154.923C320.346 153.963 320.078 153.002 319.594 152.146C318.929 150.969 317.889 150.046 316.775 149.282C315.14 148.159 313.267 147.311 311.289 147.149C309.311 146.987 307.222 147.569 305.812 148.966C303.708 147.203 300.349 147.523 298.224 149.261C296.407 150.749 295.734 152.869 295.032 154.994C295.821 154.728 296.569 154.275 297.326 153.875C300.397 152.267 303.792 151.626 307.07 152.038C310.563 152.479 313.847 154.075 317.005 155.83C318.034 156.403 319.083 157.002 320.225 157.11Z" fill="#DB6F5D"/>
<path d="M325.322 144.322C324.147 141.873 322.278 140.019 320.256 138.576C313.806 133.978 304.831 133.246 297.57 136.173C295 137.208 292.499 138.813 290.723 141.303C289.372 143.199 288.504 145.665 288.489 148.088C289.045 147.643 289.537 147.165 289.842 146.937C290.81 146.209 291.823 145.544 292.87 144.937C294.006 142.064 296.224 139.59 298.924 138.04C302.735 135.849 307.361 135.358 311.7 136.048C312.95 136.248 314.193 136.543 315.343 137.071C316.616 137.657 317.748 138.514 318.771 139.474C320.487 141.079 321.909 142.991 322.981 145.087C323.4 145.373 323.81 145.677 324.2 146.005C325.019 146.696 325.755 147.465 326.436 148.288C326.293 146.891 325.902 145.527 325.322 144.322" fill="#EAEAEA"/>
<path d="M292.132 112.95C290.196 113.744 288.462 115.161 287.575 117.061C287.395 117.444 287.249 117.855 287.261 118.28C287.289 119.219 288.086 119.972 288.946 120.342C290.888 121.181 293.118 120.604 295.151 120.017C296.021 119.768 296.891 119.518 297.761 119.265C299.123 118.874 300.544 118.446 301.559 117.456C302.574 116.467 303.01 114.729 302.122 113.623C301.827 113.257 301.42 112.995 300.999 112.783C298.33 111.436 294.81 111.848 292.132 112.95Z" fill="#FFD09C"/>
<path d="M290.532 117.914C293.264 118.13 296.017 118.121 298.743 117.835C299.694 117.735 300.803 117.485 301.179 116.604C301.344 116.217 301.157 115.752 300.842 115.473C300.528 115.199 300.112 115.066 299.708 114.953C297.901 114.455 296.008 114.172 294.147 114.401C292.82 114.563 291.51 114.999 290.391 115.735C290.049 115.964 289.104 116.45 288.992 116.853C288.77 117.66 290.03 117.872 290.532 117.914Z" fill="white"/>
<path d="M291.863 114.912C291.722 115.232 291.653 115.61 291.681 116.055C291.728 116.795 292.113 117.477 292.673 117.963C294.203 118.018 295.735 117.993 297.262 117.889C297.329 117.83 297.397 117.776 297.459 117.71C298.186 116.953 298.445 115.727 297.937 114.804C297.861 114.667 297.767 114.542 297.665 114.426C296.506 114.243 295.331 114.184 294.169 114.33C293.382 114.426 292.602 114.621 291.863 114.912" fill="#1E1E1E"/>
<path d="M325.072 114.733C326.869 115.81 328.373 117.469 328.967 119.477C329.088 119.884 329.171 120.312 329.096 120.728C328.929 121.651 328.029 122.279 327.123 122.516C325.079 123.061 322.958 122.158 321.036 121.273C320.213 120.894 319.39 120.52 318.566 120.142C317.279 119.552 315.936 118.916 315.08 117.789C314.223 116.658 314.051 114.874 315.094 113.91C315.44 113.594 315.881 113.394 316.329 113.249C319.168 112.318 322.587 113.245 325.072 114.733" fill="#FFD09C"/>
<path d="M326.309 119.98C323.569 119.893 320.834 119.577 318.158 118.986C317.224 118.778 316.15 118.404 315.875 117.49C315.755 117.086 315.993 116.646 316.337 116.405C316.68 116.163 317.108 116.08 317.523 116.014C319.374 115.719 321.286 115.652 323.11 116.089C324.41 116.396 325.664 116.974 326.693 117.835C327.007 118.097 327.892 118.687 327.957 119.103C328.088 119.926 326.812 119.997 326.309 119.98" fill="white"/>
<path d="M325.318 116.928C325.421 117.261 325.447 117.643 325.37 118.084C325.241 118.812 324.781 119.448 324.171 119.868C322.644 119.747 321.124 119.556 319.619 119.281C319.559 119.215 319.498 119.148 319.443 119.078C318.806 118.242 318.686 116.995 319.294 116.138C319.385 116.009 319.492 115.897 319.607 115.793C320.779 115.739 321.952 115.814 323.092 116.088C323.863 116.271 324.616 116.55 325.318 116.928Z" fill="#1E1E1E"/>
<path d="M268.486 173.52C266.513 170.618 265.167 167.346 263.837 164.095C261.362 158.058 258.888 152.021 256.413 145.985C259.401 146.442 261.566 149.04 263.14 151.622C264.714 154.204 266.097 157.069 268.597 158.769C266.198 155.543 264.881 151.527 264.906 147.506C268.145 145.756 271.74 150.229 275.377 149.66C274.246 149.839 270.187 137.977 269.751 136.68C268.252 132.203 267.139 127.592 266.482 122.915C265.833 118.284 265.628 113.581 265.955 108.917C266.184 105.628 267.331 102.173 267.94 98.8682C266.964 101.267 266.233 103.77 265.75 106.289C264.097 114.899 264.951 123.78 266.002 132.481C266.327 135.179 266.664 137.965 265.878 140.563C263.503 147.153 259.567 145.324 255.213 142.102C254.408 141.507 253.433 140.879 252.478 141.179C251.473 141.499 251.034 142.75 251.237 143.785C251.442 144.821 252.109 145.69 252.709 146.554C259.775 156.732 259.921 171.1 268.799 179.743C274.355 185.152 282.109 187.081 290.02 187.406C281.576 184.836 273.391 180.737 268.486 173.52" fill="#2F43A3"/>
<path d="M277.174 97.5793C277.089 97.5793 277.003 97.5793 276.917 97.571C273 97.28 273.94 93.7171 275.777 91.8795C277.901 89.7592 280.326 88.0131 283.045 86.7284C286.484 85.107 290.295 84.2298 294.101 84.2298C296.267 84.2298 298.431 84.5125 300.524 85.1028C301.233 85.3065 302.081 85.7431 302.018 86.479C301.95 87.2772 300.909 87.5183 300.109 87.5308C296.713 87.5807 293.219 87.3811 290.025 88.5327C286.9 89.6552 284.358 91.9751 282.108 94.4197C280.744 95.8997 279.149 97.5793 277.174 97.5793" fill="#6A7BF6"/>
<path d="M271.619 108.297C271.051 108.297 270.502 108.139 270.054 107.778C269.691 107.487 269.428 107.083 269.222 106.668C268.196 104.576 268.651 100.876 271.098 99.8245C271.531 99.6374 271.925 99.5543 272.283 99.5543C274.526 99.5543 275.34 102.839 275.197 104.813C275.158 105.354 275.095 105.911 274.855 106.397C274.635 106.846 274.277 107.212 273.88 107.512C273.239 107.994 272.411 108.297 271.619 108.297" fill="#6A7BF6"/>
<path d="M247.996 205.944C245.196 205.944 243.199 203.225 242.059 200.66C241.754 199.974 241.473 199.275 241.213 198.573C243.235 198.04 245.183 197.263 247.009 196.186C248.252 195.45 249.396 194.598 250.445 193.646C250.886 194.29 251.298 194.956 251.656 195.65C252.656 197.591 253.213 199.861 252.655 201.973C252.097 204.085 250.214 205.927 248.031 205.944C248.019 205.944 248.007 205.944 247.996 205.944Z" fill="#FFE6CB"/>
<path d="M241.213 198.573C240.302 196.111 239.632 193.559 238.965 191.018C238.331 188.599 234.981 181.186 236.942 179.082C237.48 178.504 238.032 178.263 238.579 178.263C240.825 178.263 242.987 182.329 243.789 183.801C245.016 186.05 246.401 188.216 247.932 190.27C248.769 191.393 249.654 192.49 250.445 193.646C249.396 194.598 248.252 195.45 247.009 196.186C245.183 197.263 243.235 198.04 241.213 198.573Z" fill="#FFE6CB"/>
<path d="M35.7784 162.739C31.6826 161.355 27.1717 160.561 23.9582 157.667C23.4475 157.206 22.9592 156.661 22.8179 155.988C22.5806 154.857 23.4467 153.722 24.513 153.273C25.5793 152.824 26.7861 152.903 27.9359 153.032C34.2782 153.73 40.4085 155.672 46.4906 157.601C53.8847 159.95 61.2787 162.295 68.6727 164.639C71.4769 165.529 74.5325 166.614 76.0015 169.167C77.3591 171.524 75.7488 177.399 71.7936 179.872C63.2738 185.198 60.6121 193.355 56.3045 184.225C52.0608 175.233 46.9195 166.51 35.7784 162.739" fill="#FFD09C"/>
<path d="M75.9799 169.129C74.5109 166.581 71.4554 165.496 68.6512 164.606C66.4362 163.903 64.2209 163.201 62.006 162.498C65.2245 164.261 69.1295 165.167 71.1965 168.169C71.6224 168.788 71.9536 169.495 72.0176 170.243C72.0916 171.112 71.8015 171.977 71.3776 172.738C69.7603 175.64 66.4001 177.103 64.299 179.673C62.5225 181.847 61.7803 184.811 62.2399 187.572C64.5459 186.079 67.3808 182.583 71.772 179.835C75.7273 177.365 77.3376 171.487 75.9799 169.129" fill="#EABE92"/>
<path d="M61.7155 185.713C61.3789 186.341 61.5854 187.144 62.038 187.701C62.097 187.663 62.156 187.626 62.2158 187.588L61.7155 185.713" fill="#EABE92"/>
<path d="M68.1412 185.231C68.1412 185.231 67.4306 181.207 61.6784 181.169C56.0297 181.136 56.3044 184.225 56.3044 184.225L56.4839 199.554C56.4839 199.554 58.12 196.406 62.094 195.217C67.502 193.604 71.4016 199.03 71.4016 199.03L68.1412 185.231Z" fill="#F27949"/>
<path d="M104.104 119.273C99.8907 118.304 95.3229 117.963 91.8359 115.407C91.2816 114.999 90.7413 114.509 90.5336 113.852C90.1841 112.75 90.9321 111.536 91.9485 110.983C92.965 110.43 94.173 110.384 95.33 110.397C101.71 110.459 108.004 111.777 114.249 113.087C121.84 114.679 129.432 116.275 137.024 117.868C139.903 118.475 143.051 119.248 144.768 121.639C146.355 123.846 147.023 127.284 145.955 129.783C142.457 137.973 131.016 146.442 127.21 137.096C124.232 129.787 115.566 121.909 104.104 119.273" fill="#FFD09C"/>
<path d="M139.702 131.82C138.162 133.778 136.541 135.745 135.681 138.086C135.354 138.975 135.158 139.94 135.128 140.896C139.374 139.366 143.902 134.639 145.883 129.999C146.951 127.501 146.282 124.062 144.696 121.851C142.979 119.464 139.83 118.687 136.951 118.084L136.874 118.067C138.184 118.799 139.495 119.531 140.805 120.263C141.727 120.778 142.696 121.339 143.195 122.271C143.696 123.202 143.626 124.341 143.369 125.368C142.766 127.788 141.242 129.858 139.702 131.82Z" fill="#DDB38A"/>
<path d="M127.111 138.925C127.111 138.925 128.162 135.263 133.578 134.785C139.983 134.215 141.658 136.157 141.658 136.157L143.668 155.214C143.668 155.214 141.538 149.722 135.398 150.08C129.618 150.417 126.588 152.312 126.588 152.312L127.111 138.925" fill="#F27949"/>
</svg>
