<?xml version="1.0" standalone="no"?>
<!DOCTYPE svg PUBLIC "-//W3C//DTD SVG 20010904//EN"
 "http://www.w3.org/TR/2001/REC-SVG-20010904/DTD/svg10.dtd">
<svg version="1.0" xmlns="http://www.w3.org/2000/svg"
 width="850.000000pt" height="850.000000pt" viewBox="0 0 850.000000 850.000000"
 preserveAspectRatio="xMidYMid meet">
<metadata>
Created by potrace 1.14, written by Peter Selinger 2001-2017
</metadata>
<g transform="translate(0.000000,850.000000) scale(0.100000,-0.100000)"
fill="#000000" stroke="none">
<path d="M4527 7904 c-1 -2 -18 -6 -37 -9 -67 -12 -256 -100 -290 -135 -3 -3
-30 -25 -60 -50 -88 -72 -139 -128 -220 -240 -22 -30 -43 -59 -48 -65 -11 -14
-157 -247 -165 -265 -4 -8 -17 -31 -28 -50 -33 -53 -119 -228 -119 -240 0 -5
-4 -18 -10 -28 -11 -20 -58 -166 -64 -202 -3 -14 -10 -50 -16 -82 -6 -31 -10
-60 -9 -65 1 -4 0 -10 -1 -13 -1 -3 -4 -36 -5 -75 -2 -38 -5 -77 -8 -85 -2 -8
-11 -40 -21 -71 -39 -132 -47 -244 -32 -449 4 -52 9 -97 11 -100 2 -4 6 -26 9
-51 6 -44 11 -71 21 -119 4 -14 8 -36 11 -50 3 -14 9 -40 15 -58 6 -18 12 -39
13 -45 8 -36 20 -73 27 -82 4 -5 8 -14 8 -20 1 -14 20 -75 32 -102 5 -13 13
-33 18 -45 25 -65 130 -272 168 -331 24 -37 43 -70 43 -73 0 -3 13 -22 28 -42
16 -20 47 -62 70 -92 45 -61 124 -144 195 -206 44 -39 46 -42 37 -75 -17 -65
-23 -165 -24 -359 0 -221 11 -345 49 -555 13 -71 15 -68 -68 -97 l-79 -28 -61
29 c-128 59 -154 70 -212 94 -79 32 -100 39 -101 35 0 -2 -8 3 -17 11 -10 7
-17 10 -17 7 0 -4 -10 -1 -22 6 -13 6 -32 13 -42 15 -11 2 -40 10 -65 19 -25
9 -55 18 -66 20 -11 2 -31 7 -45 10 -75 18 -162 33 -203 35 -29 2 -47 7 -47
15 0 7 3 14 8 16 4 2 33 41 64 88 65 97 130 224 149 290 7 25 16 50 20 55 15
20 3 268 -15 325 -33 100 -114 253 -208 394 -51 77 -97 146 -103 155 -5 9 -24
36 -40 61 -70 103 -84 135 -90 206 -3 38 -8 89 -10 114 -3 25 -8 68 -11 95 -3
28 -8 58 -10 68 -3 10 5 32 20 51 14 19 37 55 51 82 66 123 -13 249 -168 269
-12 1 -33 5 -47 9 -14 3 -36 8 -50 10 -14 3 -47 10 -75 16 -27 5 -61 13 -75
15 -14 3 -36 8 -50 11 -33 8 -59 13 -95 20 -16 3 -50 10 -75 15 -108 25 -257
46 -335 48 -73 2 -86 0 -104 -18 -38 -38 -21 -71 52 -103 35 -16 137 -44 192
-53 71 -11 193 -65 271 -120 52 -36 142 -134 172 -188 25 -44 29 -61 26 -107
-2 -30 -4 -55 -4 -55 -1 0 -3 -47 -6 -105 -2 -58 -6 -123 -9 -145 -3 -22 -7
-56 -9 -75 -2 -19 -7 -53 -10 -75 -3 -22 -8 -62 -11 -90 -3 -27 -8 -68 -11
-90 -3 -22 -7 -53 -8 -70 -9 -81 -18 -148 -22 -168 -2 -12 -6 -51 -10 -87 -3
-36 -7 -76 -10 -90 -6 -30 -10 -70 -20 -170 -4 -41 -8 -88 -10 -105 -1 -16 -5
-64 -9 -105 -3 -41 -8 -95 -10 -120 -3 -25 -7 -79 -10 -121 -3 -42 -8 -96 -10
-120 -20 -221 -21 -207 36 -361 38 -102 77 -185 89 -193 20 -12 -1 -23 -77
-41 -93 -21 -78 -17 -133 -34 -25 -7 -50 -14 -57 -16 -24 -4 -188 -68 -197
-76 -29 -25 -31 -3 -9 95 57 248 22 425 -130 652 -40 59 -126 168 -183 232
-87 96 -202 239 -242 301 -26 41 -43 89 -67 191 -19 75 -36 146 -40 158 -6 17
3 28 52 64 32 24 64 50 71 58 27 33 49 88 51 127 2 36 -3 47 -33 77 -27 27
-110 68 -146 72 -3 0 -18 5 -35 11 -16 7 -50 17 -75 24 -25 7 -54 16 -65 21
-26 10 -406 128 -435 134 -3 1 -20 5 -38 9 -100 24 -190 30 -217 16 -77 -41
-1 -112 180 -170 94 -30 165 -61 165 -71 0 -5 6 -9 13 -9 8 0 43 -28 80 -62
62 -60 125 -147 178 -248 l24 -45 1 -770 c0 -682 5 -913 20 -988 2 -12 6 -42
9 -67 11 -111 52 -277 81 -333 7 -16 14 -35 14 -43 0 -8 5 -14 10 -14 6 0 10
-5 10 -11 0 -30 117 -139 151 -139 5 0 9 -4 9 -8 0 -5 12 -15 28 -23 15 -8 29
-16 32 -20 28 -30 360 -189 360 -172 0 3 6 1 13 -5 10 -8 94 -36 142 -48 58
-14 114 -26 130 -29 11 -2 34 -7 50 -10 17 -4 37 -7 45 -7 8 0 22 -2 30 -5 24
-8 115 -14 246 -17 66 -2 125 -6 131 -9 6 -4 13 -3 17 0 4 4 30 8 59 8 51 2
198 14 227 20 8 2 38 6 65 9 28 4 57 9 65 11 8 2 31 6 50 9 19 3 69 13 110 22
41 9 84 18 95 19 11 2 20 4 20 5 0 6 48 13 90 13 32 0 66 -7 94 -21 25 -12 51
-22 58 -22 7 0 21 -4 31 -10 36 -20 329 -110 380 -116 72 -9 160 -9 257 1 44
4 94 8 111 9 17 2 36 6 42 10 7 4 12 5 12 3 0 -3 37 4 83 14 109 25 108 25
150 43 21 8 38 15 40 15 23 -5 185 113 212 155 13 20 91 82 120 96 12 6 188
123 195 130 3 3 73 50 155 104 83 55 152 103 155 106 5 7 63 42 131 79 81 45
180 152 305 331 69 100 65 95 140 185 32 39 64 74 72 79 8 4 23 17 33 27 11
11 21 19 24 18 3 0 38 16 78 35 91 44 201 149 275 261 15 22 29 42 32 45 11
11 70 112 70 120 0 5 7 21 15 37 8 15 21 44 28 63 8 19 19 46 24 60 8 19 27
31 79 49 68 23 186 78 254 119 19 12 49 29 67 37 18 9 37 23 44 31 6 8 17 14
24 14 8 0 15 4 17 8 2 4 26 23 53 42 28 19 52 37 55 40 3 3 30 25 60 50 123
100 294 273 349 354 8 12 18 23 22 26 16 11 176 258 204 315 17 33 34 63 38
66 5 3 9 10 9 15 1 12 8 34 19 59 18 43 49 163 58 225 11 79 14 94 22 100 20
16 77 200 104 332 8 36 18 208 18 283 -1 124 -10 232 -39 450 -44 345 -140
568 -311 731 -94 90 -189 131 -300 132 -68 0 -159 -31 -200 -70 -63 -58 -102
-161 -109 -283 -6 -132 35 -196 149 -234 36 -12 77 -24 92 -27 49 -9 165 -11
211 -4 38 6 44 5 40 -9 -3 -9 -8 -29 -12 -46 -4 -16 -30 -75 -58 -130 -108
-208 -140 -339 -140 -565 1 -139 5 -170 31 -255 8 -27 17 -69 20 -91 l5 -41
-81 -38 c-45 -21 -81 -42 -81 -47 0 -4 -7 -8 -15 -8 -8 0 -15 -4 -15 -10 0 -5
-5 -10 -10 -10 -6 0 -18 -6 -26 -12 -38 -31 -171 -166 -189 -192 -46 -66 -50
-69 -71 -58 -24 13 -53 24 -79 29 -11 2 -36 8 -55 13 -80 21 -253 31 -322 19
l-36 -6 -1 136 c0 75 -3 150 -5 166 -2 17 -7 55 -10 85 -20 167 -60 342 -107
459 -25 62 -95 197 -109 211 -3 3 -18 23 -35 45 -105 141 -261 244 -415 275
-65 13 -187 15 -221 5 -9 -3 -28 -8 -41 -10 -13 -3 -52 -19 -88 -37 -95 -46
-184 -140 -238 -251 -24 -48 -45 -97 -47 -108 -2 -11 -7 -29 -10 -39 -25 -80
-37 -278 -23 -405 33 -302 28 -359 -38 -401 -21 -14 -31 -15 -66 -5 -22 7 -58
26 -80 41 -39 29 -54 31 -92 15 -14 -6 -24 0 -45 26 -103 132 -304 281 -431
318 -25 7 -50 17 -55 22 -6 4 -26 11 -45 14 -18 3 -37 8 -41 10 -4 3 -24 7
-45 10 -22 3 -48 7 -59 9 -11 3 -32 5 -46 5 -14 1 -26 7 -26 14 0 29 -27 137
-50 200 -34 94 -75 168 -144 260 -52 68 -57 80 -47 97 7 11 16 20 20 20 5 0 8
5 8 10 0 6 16 28 36 48 53 55 121 162 158 249 39 91 48 114 51 128 2 6 10 37
18 70 24 93 30 157 32 325 2 184 3 191 14 209 7 11 14 10 37 -6 45 -32 131
-73 138 -66 3 4 6 0 6 -7 0 -7 3 -11 6 -7 3 3 23 -1 44 -8 21 -8 51 -14 67
-15 74 -3 110 -2 138 3 33 7 86 61 114 115 16 31 22 50 36 112 16 70 20 135
11 178 -8 37 -49 104 -81 133 -35 32 -116 75 -160 85 -30 6 -153 12 -158 8z"/>
<path d="M3027 854 c-1 -1 -168 -5 -372 -9 -496 -8 -775 -16 -1065 -30 -346
-15 -370 -17 -555 -30 -135 -10 -276 -26 -363 -40 -13 -2 -39 -9 -59 -16 -29
-9 -33 -13 -22 -25 8 -7 25 -15 39 -17 14 -3 36 -8 50 -11 14 -3 45 -8 70 -11
25 -3 56 -7 70 -9 14 -3 67 -7 118 -11 51 -3 112 -8 135 -10 161 -16 881 -47
1159 -49 71 -1 128 -4 128 -7 0 -3 20 -3 45 1 25 4 45 4 45 1 0 -9 624 -14
1535 -14 932 1 1386 6 1405 18 8 5 11 4 7 -2 -4 -6 13 -7 44 -3 27 4 52 3 55
-2 3 -5 10 -5 16 -1 7 3 64 7 127 9 130 2 472 13 601 19 47 2 137 6 200 9 195
9 362 20 465 31 22 3 65 7 95 10 58 5 76 8 177 26 89 16 99 34 31 53 -51 15
-83 20 -198 31 -30 3 -73 8 -95 10 -22 3 -74 7 -115 10 -41 2 -106 7 -145 10
-68 5 -169 10 -400 21 -182 8 -388 14 -990 30 -221 5 -2233 13 -2238 8z"/>
</g>
</svg>
